HIERARCHY
ROOT Hips
{
  OFFSET 0 89.5177 0.535
  CHANNELS 6 Xposition Yposition Zposition Zrotation Xrotation Yrotation
  JOINT Spine
  {
    OFFSET 12.0259 -0.162855 1.69034e-005
    CHANNELS 3 Zrotation Xrotation Yrotation
    JOINT Spine1
    {
      OFFSET 15.3169 -0.0121922 0
      CHANNELS 3 Zrotation Xrotation Yrotation
      JOINT Spine2
      {
        OFFSET 15.3176 -0.0121908 0
        CHANNELS 3 Zrotation Xrotation Yrotation
        JOINT Neck
        {
          OFFSET 19.9142 1.56338 0
          CHANNELS 3 Zrotation Xrotation Yrotation
          JOINT Head
          {
            OFFSET 6.92651 0 0
            CHANNELS 3 Zrotation Xrotation Yrotation
            End Site
            {
              OFFSET 20.7666 0 0
            }
          }
          JOINT LeftShoulder
          {
            OFFSET -6.20654 0.708824 7.28219
            CHANNELS 3 Zrotation Xrotation Yrotation
            JOINT LeftArm
            {
              OFFSET 14.108 0 -1.52588e-005
              CHANNELS 3 Zrotation Xrotation Yrotation
              JOINT LeftForeArm
              {
                OFFSET 28.5802 0 0
                CHANNELS 3 Zrotation Xrotation Yrotation
                JOINT LeftHand
                {
                  OFFSET 27.092 0 0
                  CHANNELS 3 Zrotation Xrotation Yrotation
                  End Site
                  {
                    OFFSET 9.55928 -0.186424 0.145352
                  }
                }
              }
            }
          }
          JOINT RightShoulder
          {
            OFFSET -6.20654 0.708866 -7.28218
            CHANNELS 3 Zrotation Xrotation Yrotation
            JOINT RightArm
            {
              OFFSET 14.108 0 1.52588e-005
              CHANNELS 3 Zrotation Xrotation Yrotation
              JOINT RightForeArm
              {
                OFFSET 28.5802 0 0
                CHANNELS 3 Zrotation Xrotation Yrotation
                JOINT RightHand
                {
                  OFFSET 27.092 0 0
                  CHANNELS 3 Zrotation Xrotation Yrotation
                  End Site
                  {
                    OFFSET 9.55929 -0.186417 -0.145354
                  }
                }
              }
            }
          }
        }
      }
    }
  }
  JOINT LeftUpLeg
  {
    OFFSET 0.005 -0.535 8.837
    CHANNELS 3 Zrotation Xrotation Yrotation
    JOINT LeftLeg
    {
      OFFSET 39.9035 0 0
      CHANNELS 3 Zrotation Xrotation Yrotation
      JOINT LeftFoot
      {
        OFFSET 39.6689 0 0
        CHANNELS 3 Zrotation Xrotation Yrotation
        JOINT LeftToe
        {
          OFFSET 10.1624 13.6296 0
          CHANNELS 3 Zrotation Xrotation Yrotation
          End Site
          {
            OFFSET 8.38147 0 0
          }
        }
      }
    }
  }
  JOINT RightUpLeg
  {
    OFFSET 0.005 -0.535 -8.837
    CHANNELS 3 Zrotation Xrotation Yrotation
    JOINT RightLeg
    {
      OFFSET 39.9035 0 0
      CHANNELS 3 Zrotation Xrotation Yrotation
      JOINT RightFoot
      {
        OFFSET 39.6689 0 0
        CHANNELS 3 Zrotation Xrotation Yrotation
        JOINT RightToe
        {
          OFFSET 10.1624 13.6296 0
          CHANNELS 3 Zrotation Xrotation Yrotation
          End Site
          {
            OFFSET 8.38147 0 0
          }
        }
      }
    }
  }
}
MOTION
Frames:	9
Frame Time:	0.0333333
150.142 93.3521 1.18139 108.948 68.9224 -27.1832 0.34568 -0.954627 -0.854768 0.677226 -1.91382 -1.70395 0.677226 -1.91382 -1.70396 -8.3043e-012 -9.0191e-006 -5.27751e-005 14.2887 -28.4676 20.8807 -178.15 -5.54357 -71.5088 13.6706 2.51816 49.5912 -62.1079 -3.18055e-015 -1.59028e-015 -38.8332 -28.7352 -39.0181 -177.928 5.86903 70.519 4.17844 2.04256 -60.8437 -49.5492 0 -6.36111e-015 -27.6892 42.0904 32.0417 -3.17312 3.13002 -167.935 -0.932993 -3.18055e-015 -5.96354e-016 7.68933 11.4898 -12.9852 90 -1.98785e-016 -3.18055e-015 -3.44295 -15.8296 -179.589 -19.7635 3.18056e-015 -1.59028e-015 -7.72805 -10.8475 9.57096 90 0 1.27222e-014 
150.386 93.3354 1.17299 106.698 67.9499 -24.9981 0.327241 -0.855966 -0.865866 0.641621 -1.71629 -1.72695 0.641621 -1.7163 -1.72696 -8.30748e-012 -9.0191e-006 -5.27751e-005 14.4762 -27.5831 20.3144 -178.057 -5.78534 -71.3981 16.2172 1.10306 49.1143 -61.8309 -3.18055e-015 -1.59028e-015 -39.3656 -28.6509 -39.8172 -177.956 5.77686 70.4806 3.40674 2.12443 -60.8801 -44.652 -3.18055e-015 -6.36111e-015 -23.0398 41.2597 28.4269 -2.73784 3.80326 -168.152 -1.14253 3.18055e-015 1.39149e-015 7.80188 11.0887 -12.5274 90 0 3.18055e-015 -2.10275 -17.4578 -179.331 -19.8902 0 -1.59028e-015 -7.8769 -11.0247 9.27773 90 1.59028e-015 -0 
150.615 93.3122 1.05731 104.809 66.7315 -23.0138 0.302295 -0.807601 -0.887356 0.592139 -1.61931 -1.77054 0.592139 -1.61931 -1.77055 -8.3043e-012 -9.0191e-006 -5.27751e-005 14.3431 -26.4403 19.9644 -177.952 -6.02025 -71.1698 17.9683 -0.0293146 48.526 -61.4381 -1.59028e-015 -0 -39.6472 -28.8257 -40.4644 -177.951 5.76058 70.3866 4.047 2.33945 -61.0175 -41.1543 6.36111e-015 -3.18055e-015 -18.3136 40.295 24.8843 -2.44943 4.72314 -168.476 -1.22317 3.18055e-015 3.97569e-016 7.77507 10.742 -12.1302 90 1.19271e-015 -6.36111e-015 -1.31947 -18.9714 -179.263 -19.9176 0 -6.36111e-015 -8.02616 -10.8137 8.67024 90 3.18055e-015 -6.36111e-015 
150.875 93.2885 0.791789 103.304 65.2426 -21.2391 0.283844 -0.804066 -0.928129 0.554712 -1.61214 -1.85237 0.554712 -1.61214 -1.85238 -8.31066e-012 -9.0191e-006 -5.27751e-005 13.908 -24.9338 19.6376 -177.847 -6.24145 -70.9235 18.9049 -1.04005 48.0005 -60.814 7.95139e-016 -1.59028e-015 -39.7561 -28.4906 -40.1066 -177.992 5.6061 70.2536 6.04716 2.46898 -61.1284 -38.9701 0 -1.43125e-014 -16.604 39.9029 23.4719 -2.28942 5.35645 -168.994 -1.29082 3.18055e-015 -1.59028e-015 7.418 9.96318 -11.2193 90 0 -3.18055e-015 -1.32002 -20.0743 -179.369 -20.0011 -6.36111e-015 -0 -8.22727 -10.0007 7.39324 90 3.18055e-015 -3.18055e-015 
151.048 93.3044 0.393267 101.518 63.505 -19.4447 0.297546 -0.8335 -0.914514 0.581849 -1.67116 -1.82481 0.581849 -1.67116 -1.82482 -8.3043e-012 -9.0191e-006 -5.27751e-005 13.2672 -23.0345 19.1904 -177.749 -6.4416 -70.6938 19.0782 -1.56747 47.551 -60.2817 -4.77083e-015 1.59028e-015 -39.564 -28.2187 -39.8776 -178.012 5.4888 70.054 8.3886 2.53875 -61.108 -37.3239 0 -6.36111e-015 -18.654 40.0396 25.3584 -2.07633 6.16539 -169.194 -1.34955 3.18055e-015 3.97569e-016 6.90545 9.10937 -10.2234 90 1.98785e-016 -9.54166e-015 -1.60294 -20.8096 -179.248 -19.9807 3.18056e-015 -1.59028e-015 -8.57575 -9.05598 6.08563 90 0 -0 
151.274 93.3054 -0.101126 100.045 61.5847 -17.8564 0.324369 -0.915165 -0.900721 0.634437 -1.83483 -1.79642 0.634437 -1.83483 -1.79643 -8.30748e-012 -9.0191e-006 -5.27751e-005 12.4943 -20.9601 18.4752 -177.712 -6.51535 -70.6025 18.6709 -1.81539 47.42 -59.7146 -1.59028e-015 -3.18055e-015 -39.5088 -27.7091 -39.3802 -178.051 5.34356 69.9272 10.5194 2.71473 -60.8719 -35.8848 -3.18055e-015 -3.97569e-016 -21.7978 40.4951 27.7139 -2.05016 7.24608 -169.49 -1.4336 -3.18055e-015 -7.95139e-016 6.39699 8.35198 -9.3465 90 -3.18055e-015 -0 -3.07609 -21.4147 -179.706 -21.4928 -6.36111e-015 -3.18056e-015 -8.58644 -8.0637 5.85619 90 0 6.36111e-015 
151.451 93.3172 -0.608824 98.3969 59.6721 -16.2595 0.379407 -1.03045 -0.844136 0.743775 -2.06588 -1.68167 0.743775 -2.06588 -1.68168 -8.30589e-012 -9.0191e-006 -5.27751e-005 11.8726 -18.84 17.4852 -177.787 -6.31228 -70.6357 17.6716 -1.46874 47.4454 -59.5052 3.18055e-015 -1.59028e-015 -38.8641 -28.3268 -39.6252 -178.102 5.17418 69.8199 12.4448 2.97219 -60.3316 -34.6858 -3.18055e-015 1.39149e-014 -24.1007 40.9176 29.4157 -1.91105 8.37473 -169.609 -1.61706 0 9.93923e-016 5.93685 7.63511 -8.52187 90 9.93923e-016 9.54166e-015 -4.31733 -22.0717 179.893 -22.9719 0 1.59028e-015 -8.66801 -7.66543 5.72717 90 -6.36111e-015 -0 
151.585 93.3409 -1.16004 96.9435 57.6477 -15.0201 0.421634 -1.16787 -0.740421 0.828402 -2.3406 -1.47252 0.828402 -2.3406 -1.47253 -8.30748e-012 -9.0191e-006 -5.27751e-005 11.301 -16.6477 16.5722 -177.871 -6.10992 -70.7432 16.0072 -1.0413 47.6374 -59.0947 -3.18055e-015 -6.36111e-015 -38.3347 -28.3838 -39.0911 -178.161 4.99754 69.7659 14.2302 3.46523 -59.7449 -33.6757 -3.18055e-015 -8.94531e-015 -25.2825 40.558 30.7189 -1.83386 9.19969 -169.547 -1.93851 3.18055e-015 -3.97569e-016 5.33935 6.60451 -7.34211 90 0 -3.18055e-015 -5.05324 -22.746 179.743 -23.6239 0 -0 -8.78112 -8.60279 5.17465 90 1.59028e-015 -3.18055e-015 
151.688 93.352 -1.70276 95.559 55.7045 -13.9058 0.46614 -1.32231 -0.62521 0.918191 -2.64911 -1.23997 0.918191 -2.64911 -1.23998 -8.30907e-012 -9.0191e-006 -5.27751e-005 11.306 -14.5285 15.6046 -177.947 -5.93296 -70.8715 13.4429 -0.499666 47.7683 -58.7152 -1.59028e-015 -3.18055e-015 -37.7898 -28.3932 -38.58 -178.193 4.90068 69.7319 15.8433 4.08927 -59.1289 -32.6466 -3.18055e-015 -5.56597e-015 -25.5161 39.696 30.8168 -1.73901 9.85117 -169.418 -2.37651 0 -7.95139e-016 4.69942 5.46714 -6.04782 90 3.97569e-016 9.54166e-015 -6.20352 -22.7186 179.001 -25.1448 -9.54167e-015 -4.77083e-015 -8.23473 -10.6104 7.19976 90 -3.18055e-015 6.36111e-015 
